<svg width="423" height="513" viewBox="0 0 423 513" fill="none" xmlns="http://www.w3.org/2000/svg">
<g id="Combine">
<path id="Ellipse 1" d="M344 340.5C344 435.493 266.993 512.5 172 512.5C77.007 512.5 0 435.493 0 340.5C0 245.507 77.007 168.5 172 168.5C266.993 168.5 344 245.507 344 340.5Z" fill="#DA3F35" fill-opacity="0.81"/>
<circle id="Ellipse 2" cx="237" cy="181" r="108" fill="#E6B486" fill-opacity="0.46"/>
<g id="figure" clip-path="url(#clip0)">
<path id="heart" d="M317.181 56.6608C325.948 52.1298 334.853 47.2744 341.047 39.9262C347.517 32.2521 350.278 20.7741 344.283 12.7723C339.247 6.05079 329.218 3.68744 320.675 5.62993C312.133 7.57242 304.981 13.1067 299.427 19.4634C301.244 11.6504 292.408 4.10644 283.868 4.79836C275.327 5.49028 268.474 12.4518 266.194 20.1585C263.913 27.8652 265.397 36.1126 267.844 43.7748C271.964 56.6221 278.698 68.6096 287.677 79.0832C289.054 76.757 290.718 74.589 292.635 72.6233C299.378 65.7076 308.414 61.1919 317.181 56.6608Z" fill="#E62525"/>
<path id="Vector" d="M286.877 79.4573C275.405 67.6615 267.002 53.5585 262.322 38.2434C259.917 30.2879 258.508 21.2427 262.113 13.3937C264.901 7.32307 270.843 1.83047 278.209 1.32197C285.983 0.785353 294.613 7.49842 292.947 15.1747C292.823 15.748 293.633 16.3528 294.112 15.807C300.335 8.72447 308.888 2.20045 319.08 1.56091C328.159 0.99128 337.696 5.22196 340.34 13.8223C343.094 22.7801 338.342 32.257 331.687 38.5914C324.304 45.618 314.694 50.0012 305.623 54.7868C296.699 59.4954 287.621 64.9327 282.132 73.2559C279.524 77.1056 277.912 81.4684 277.424 85.9992C276.993 90.6758 278.248 95.0976 280.676 99.1757C283.254 103.507 286.443 107.456 288.772 111.929C291.062 116.349 292.804 120.998 293.964 125.787C296.307 135.332 296.322 145.246 294.009 154.797C289.73 172.205 277.245 187.525 260.628 196.339C258.62 197.402 256.556 198.37 254.444 199.238C253.626 199.576 254.334 200.696 255.148 200.361C263.95 196.677 271.862 191.372 278.41 184.764C284.958 178.157 290.006 170.384 293.252 161.911C300.282 143.3 297.587 121.857 286.341 105.174C283.397 100.808 279.997 96.5735 279.028 91.3716C278.14 86.6048 279.234 81.6322 281.392 77.2837C286.014 67.9708 295.176 61.917 304.43 56.9208C313.682 51.9258 323.565 47.5998 331.405 40.6716C338.385 34.5041 343.534 25.7039 342.325 16.4847C341.826 12.2716 339.723 8.36526 336.398 5.4756C333.046 2.72641 328.887 0.977108 324.458 0.453403C314.578 -0.845598 305.316 3.52594 298.274 9.7054C296.44 11.3275 294.721 13.0587 293.127 14.888L294.291 15.5203C295.795 8.59147 289.888 2.22595 282.973 0.473555C275.452 -1.43217 267.996 2.66797 263.663 8.22646C258.249 15.1696 257.806 24.0735 259.389 32.26C261.03 40.7523 264.429 49.0666 268.556 56.7658C273.158 65.3337 278.99 73.2769 285.892 80.3764C286.495 80.9977 287.478 80.0763 286.877 79.4573L286.877 79.4573Z" fill="#3F3D56"/>
<path id="Vector_2" d="M282.026 313.38L275.449 315.121L249.607 238.378L268.57 235.329L282.026 313.38Z" fill="#9F616A"/>
<path id="Vector_3" d="M204.832 313.821L198.328 312.521L215.153 233.879L233.448 239.437L204.832 313.821Z" fill="#9F616A"/>
<path id="Vector_4" d="M274.1 328.288C275.901 329.054 277.41 324.304 278.929 325.696C283.178 329.59 293.371 328.717 293.371 328.717C293.714 328.614 294.03 328.448 294.301 328.228C294.572 328.008 294.793 327.739 294.95 327.437C295.106 327.136 295.195 326.807 295.212 326.472C295.228 326.138 295.172 325.803 295.045 325.489C294.894 325.113 294.648 324.778 294.327 324.511C294.006 324.243 293.62 324.053 293.203 323.956L288.684 322.902L281.588 311.266L273.856 310.353L273.66 310.651C272.165 312.898 271.202 315.416 270.833 318.038C270.465 320.66 270.7 323.324 271.524 325.854C272.167 327.776 273.042 327.837 274.1 328.288Z" fill="#2F2E41"/>
<path id="Vector_5" d="M195.384 324.902C197.005 325.963 199.419 321.549 200.639 323.177C204.054 327.73 214.247 328.609 214.247 328.609C214.603 328.566 214.947 328.457 215.257 328.286C215.566 328.116 215.836 327.89 216.049 327.62C216.262 327.35 216.414 327.042 216.496 326.716C216.578 326.389 216.588 326.051 216.525 325.72C216.45 325.325 216.274 324.953 216.01 324.636C215.747 324.319 215.405 324.066 215.014 323.899L210.777 322.093L206.082 309.443L198.658 307.228L198.408 307.488C196.498 309.442 195.057 311.753 194.181 314.268C193.305 316.783 193.014 319.443 193.328 322.071C193.584 324.07 194.432 324.279 195.384 324.902Z" fill="#2F2E41"/>
<path id="Vector_6" d="M260.11 179.921C263.573 184.888 266.93 189.904 268.415 195.613C272.007 209.586 274.571 223.772 276.09 238.071C264.058 244.509 253.618 248.205 243.421 248.842C242.946 248.871 242.473 248.892 242 248.909L238.282 229.337L235.317 248.693C233.848 248.547 232.378 248.34 230.9 248.062C224.507 246.866 217.998 244.423 211.043 240.671C208.55 231.422 207.503 221.886 207.935 212.358C208.507 199.616 211.596 188.707 214.588 179.946L260.11 179.921Z" fill="#2F2E41"/>
<path id="Vector_7" d="M234.568 122.216L218.221 117.033C224.135 111.634 226.55 105.706 224.106 99.0443L242.415 102.093C238.07 109.901 232.382 114.603 234.568 122.216Z" fill="#9F616A"/>
<path id="Vector_8" d="M260.11 179.921C245.24 190.952 230.101 192.223 214.588 179.946C220.842 161.637 208.084 144.42 209.942 131.422C211.102 123.313 214.718 113.269 223.127 110.933L232.159 113.507C235.292 114.399 238.127 116.025 240.392 118.231C242.658 120.437 244.278 123.149 245.098 126.106L246.166 129.984C251.337 135.113 253.061 141.855 251.718 150.039C252.852 152.361 252.331 155.29 251.811 158.223C251.319 161.013 250.826 163.808 251.755 166.082C253.755 170.972 256.976 175.426 260.11 179.921Z" fill="#3F3D56"/>
<path id="Vector_9" d="M133.137 317.752H122.08C116.297 317.752 111.13 318.134 107.72 320.177C106.116 317.455 103.758 315.185 100.891 313.605C98.0242 312.024 94.7547 311.19 91.4242 311.191H80.3679C77.926 311.191 75.508 311.639 73.252 312.511C70.996 313.382 68.9461 314.66 67.2195 316.27C65.4928 317.88 64.1231 319.792 63.1887 321.895C62.2542 323.999 61.7732 326.254 61.7732 328.531V328.531H151.731V328.531C151.731 318.954 143.406 317.752 133.137 317.752Z" fill="#E6B486"/>
<path id="Vector_10" d="M362.31 329H409.537C409.299 320.783 402.7 319.158 391.452 319.158H380.396C369.148 319.158 362.549 320.783 362.31 329Z" fill="#E6B486"/>
<path id="Vector_11" d="M423 327.88H52V328.817H423V327.88Z" fill="#E6B486"/>
<path id="Vector_12" d="M237.838 109.106C245.963 109.106 252.55 102.963 252.55 95.3856C252.55 87.8083 245.963 81.6656 237.838 81.6656C229.712 81.6656 223.125 87.8083 223.125 95.3856C223.125 102.963 229.712 109.106 237.838 109.106Z" fill="#9F616A"/>
<path id="Vector_13" d="M288.357 173.504L278.051 170.358L278.803 162.646L290.119 162.411C291.012 162.393 291.898 162.557 292.715 162.893C293.532 163.229 294.26 163.728 294.848 164.355C295.435 164.982 295.868 165.722 296.116 166.522C296.363 167.322 296.419 168.163 296.28 168.985C296.142 169.799 295.817 170.574 295.326 171.259C294.835 171.944 294.191 172.521 293.437 172.95C292.684 173.38 291.84 173.652 290.963 173.748C290.086 173.843 289.197 173.76 288.357 173.504Z" fill="#9F616A"/>
<path id="Vector_14" opacity="0.2" d="M268.415 195.613C264.155 193.75 254.459 189.053 240.452 179.535C221.162 166.424 226.068 134.411 226.068 134.411L251.811 158.223C251.319 161.013 250.826 163.808 251.755 166.082C255.965 176.376 265.586 184.738 268.415 195.613Z" fill="black"/>
<path id="Vector_15" d="M280.013 172.827C266.056 175.711 254.638 177.44 245.357 171.303C230.639 155.34 222.274 139.315 225.405 123.177C225.696 121.723 226.422 120.376 227.5 119.291C228.578 118.207 229.963 117.429 231.495 117.049C233.506 116.542 235.647 116.747 237.506 117.623C239.365 118.5 240.811 119.987 241.565 121.797L252.684 156.551L281.489 161.75L280.013 172.827Z" fill="#2F2E41"/>
<path id="Vector_16" d="M258.138 207.278C256.501 207.276 254.912 206.754 253.635 205.798C252.357 204.842 251.467 203.509 251.109 202.018L250.253 198.423L264.313 195.51L265.169 199.105C265.583 200.844 265.24 202.665 264.214 204.167C263.189 205.67 261.565 206.731 259.701 207.117C259.188 207.224 258.664 207.278 258.138 207.278ZM251.362 199.081L252.016 201.83C252.195 202.58 252.53 203.29 253.003 203.919C253.476 204.548 254.077 205.084 254.772 205.496C255.467 205.909 256.242 206.189 257.053 206.322C257.864 206.455 258.695 206.438 259.499 206.271C260.303 206.105 261.064 205.792 261.739 205.351C262.413 204.91 262.988 204.35 263.43 203.702C263.872 203.054 264.174 202.331 264.316 201.575C264.459 200.818 264.44 200.043 264.262 199.293L263.607 196.544L251.362 199.081Z" fill="#3F3D56"/>
<path id="Vector_17" d="M252.496 89.6512C252.496 89.6512 254.858 72.5103 235.587 78.1312C235.587 78.1312 221.824 75.7762 217.31 91.8308L212.74 108.66L214.967 107.53L216.006 109.646L219.615 110.499L221.16 107.64L221.907 111.112L251.469 113.86C251.469 113.86 238.229 106.558 238.019 93.4707L240.541 95.956L252.496 89.6512Z" fill="#2F2E41"/>
<path id="Vector_18" d="M77.3792 319.392C77.3792 319.392 86.4253 227.535 77.3792 213.006C77.3792 213.006 115.574 269.714 93.9637 322.204L77.3792 319.392Z" fill="#E6B486"/>
<path id="Vector_19" d="M84.7697 318.924C84.7697 318.924 113.787 270.779 112.644 260.775C112.644 260.775 118.685 300.483 93.1078 324.244L84.7697 318.924Z" fill="#E6B486"/>
<path id="Vector_20" d="M376.402 323.156C376.402 323.156 382.799 258.194 376.402 247.919C376.402 247.919 403.413 288.024 388.13 325.145L376.402 323.156Z" fill="#E6B486"/>
<path id="Vector_21" d="M381.628 322.825C381.628 322.825 402.15 288.777 401.341 281.701C401.341 281.701 405.614 309.783 387.525 326.587L381.628 322.825Z" fill="#E6B486"/>
</g>
</g>
<defs>
<clipPath id="clip0">
<rect width="371" height="329" fill="white" transform="translate(52)"/>
</clipPath>
</defs>
</svg>
