<svg width="371" height="329" viewBox="0 0 371 329" fill="none" xmlns="http://www.w3.org/2000/svg">
<g id="figure" clip-path="url(#clip0)">
<path id="heart" d="M265.181 56.6608C273.948 52.1298 282.853 47.2744 289.047 39.9262C295.517 32.2521 298.278 20.7741 292.283 12.7723C287.247 6.05079 277.218 3.68744 268.675 5.62993C260.133 7.57242 252.981 13.1067 247.427 19.4634C249.244 11.6504 240.408 4.10644 231.868 4.79836C223.327 5.49028 216.474 12.4518 214.194 20.1585C211.913 27.8652 213.397 36.1126 215.844 43.7748C219.964 56.6221 226.698 68.6096 235.677 79.0832C237.054 76.757 238.718 74.589 240.635 72.6233C247.378 65.7076 256.414 61.1919 265.181 56.6608Z" fill="#E62525"/>
<path id="Vector" d="M234.877 79.4573C223.405 67.6615 215.002 53.5585 210.322 38.2434C207.917 30.2879 206.508 21.2427 210.113 13.3937C212.901 7.32307 218.843 1.83047 226.209 1.32197C233.983 0.785353 242.613 7.49842 240.947 15.1747C240.823 15.748 241.633 16.3528 242.112 15.807C248.335 8.72447 256.888 2.20045 267.08 1.56091C276.159 0.99128 285.696 5.22196 288.34 13.8223C291.094 22.7801 286.342 32.257 279.687 38.5914C272.304 45.618 262.694 50.0012 253.623 54.7868C244.699 59.4954 235.621 64.9327 230.132 73.2559C227.524 77.1056 225.912 81.4684 225.424 85.9992C224.993 90.6758 226.248 95.0976 228.676 99.1757C231.254 103.507 234.443 107.456 236.772 111.929C239.062 116.349 240.804 120.998 241.964 125.787C244.307 135.332 244.322 145.246 242.009 154.797C237.73 172.205 225.245 187.525 208.628 196.339C206.62 197.402 204.556 198.37 202.444 199.238C201.626 199.576 202.334 200.696 203.148 200.361C211.95 196.677 219.862 191.372 226.41 184.764C232.958 178.157 238.006 170.384 241.252 161.911C248.282 143.3 245.587 121.857 234.341 105.174C231.397 100.808 227.997 96.5735 227.028 91.3716C226.14 86.6048 227.234 81.6322 229.392 77.2837C234.014 67.9708 243.176 61.917 252.43 56.9208C261.682 51.9258 271.565 47.5998 279.405 40.6716C286.385 34.5041 291.534 25.7039 290.325 16.4847C289.826 12.2716 287.723 8.36526 284.398 5.4756C281.046 2.72641 276.887 0.977108 272.458 0.453403C262.578 -0.845598 253.316 3.52594 246.274 9.7054C244.44 11.3275 242.721 13.0587 241.127 14.888L242.291 15.5203C243.795 8.59147 237.888 2.22595 230.973 0.473555C223.452 -1.43217 215.996 2.66797 211.663 8.22646C206.249 15.1696 205.806 24.0735 207.389 32.26C209.03 40.7523 212.429 49.0666 216.556 56.7658C221.158 65.3337 226.99 73.2769 233.892 80.3764C234.495 80.9977 235.478 80.0763 234.877 79.4573L234.877 79.4573Z" fill="#3F3D56"/>
<path id="Vector_2" d="M230.026 313.38L223.449 315.121L197.607 238.378L216.57 235.329L230.026 313.38Z" fill="#9F616A"/>
<path id="Vector_3" d="M152.832 313.821L146.328 312.521L163.153 233.879L181.448 239.437L152.832 313.821Z" fill="#9F616A"/>
<path id="Vector_4" d="M222.1 328.288C223.901 329.054 225.41 324.304 226.929 325.696C231.178 329.59 241.371 328.717 241.371 328.717C241.714 328.614 242.03 328.448 242.301 328.228C242.572 328.008 242.793 327.739 242.95 327.437C243.106 327.136 243.195 326.807 243.212 326.472C243.228 326.138 243.172 325.803 243.045 325.489C242.894 325.113 242.648 324.778 242.327 324.511C242.006 324.243 241.62 324.053 241.203 323.956L236.684 322.902L229.588 311.266L221.856 310.353L221.66 310.651C220.165 312.898 219.202 315.416 218.833 318.038C218.465 320.66 218.7 323.324 219.524 325.854C220.167 327.776 221.042 327.837 222.1 328.288Z" fill="#2F2E41"/>
<path id="Vector_5" d="M143.384 324.902C145.005 325.963 147.419 321.549 148.639 323.177C152.054 327.73 162.247 328.609 162.247 328.609C162.603 328.566 162.947 328.457 163.257 328.286C163.566 328.116 163.836 327.89 164.049 327.62C164.262 327.35 164.414 327.042 164.496 326.716C164.578 326.389 164.588 326.051 164.525 325.72C164.45 325.325 164.274 324.953 164.01 324.636C163.747 324.319 163.405 324.066 163.014 323.899L158.777 322.093L154.082 309.443L146.658 307.228L146.408 307.488C144.498 309.442 143.057 311.753 142.181 314.268C141.305 316.783 141.014 319.443 141.328 322.071C141.584 324.07 142.432 324.279 143.384 324.902Z" fill="#2F2E41"/>
<path id="Vector_6" d="M208.11 179.921C211.573 184.888 214.93 189.904 216.415 195.613C220.007 209.586 222.571 223.772 224.09 238.071C212.058 244.509 201.618 248.205 191.421 248.842C190.946 248.871 190.473 248.892 190 248.909L186.282 229.337L183.317 248.693C181.848 248.547 180.378 248.34 178.9 248.062C172.507 246.866 165.998 244.423 159.043 240.671C156.55 231.422 155.503 221.886 155.935 212.358C156.507 199.616 159.596 188.707 162.588 179.946L208.11 179.921Z" fill="#2F2E41"/>
<path id="Vector_7" d="M182.568 122.216L166.221 117.033C172.135 111.634 174.55 105.706 172.106 99.0443L190.415 102.093C186.07 109.901 180.382 114.603 182.568 122.216Z" fill="#9F616A"/>
<path id="Vector_8" d="M208.11 179.921C193.24 190.952 178.101 192.223 162.588 179.946C168.842 161.637 156.084 144.42 157.942 131.422C159.102 123.313 162.718 113.269 171.127 110.933L180.159 113.507C183.292 114.399 186.127 116.025 188.392 118.231C190.658 120.437 192.278 123.149 193.098 126.106L194.166 129.984C199.337 135.113 201.061 141.855 199.718 150.039C200.852 152.361 200.331 155.29 199.811 158.223C199.319 161.013 198.826 163.808 199.755 166.082C201.755 170.972 204.976 175.426 208.11 179.921Z" fill="#3F3D56"/>
<path id="Vector_9" d="M81.1366 317.752H70.0803C64.2969 317.752 59.1305 318.134 55.7201 320.177C54.1162 317.455 51.7576 315.185 48.8909 313.605C46.0242 312.024 42.7547 311.19 39.4242 311.191H28.3679C25.926 311.191 23.508 311.639 21.252 312.511C18.996 313.382 16.9461 314.66 15.2195 316.27C13.4928 317.88 12.1231 319.792 11.1887 321.895C10.2542 323.999 9.77322 326.254 9.77322 328.531V328.531H99.7313V328.531C99.7313 318.954 91.4062 317.752 81.1366 317.752Z" fill="#E6B486"/>
<path id="Vector_10" d="M310.31 329H357.537C357.299 320.783 350.7 319.158 339.452 319.158H328.396C317.148 319.158 310.549 320.783 310.31 329Z" fill="#E6B486"/>
<path id="Vector_11" d="M371 327.88H0V328.817H371V327.88Z" fill="#E6B486"/>
<path id="Vector_12" d="M185.838 109.106C193.963 109.106 200.55 102.963 200.55 95.3856C200.55 87.8083 193.963 81.6656 185.838 81.6656C177.712 81.6656 171.125 87.8083 171.125 95.3856C171.125 102.963 177.712 109.106 185.838 109.106Z" fill="#9F616A"/>
<path id="Vector_13" d="M236.357 173.504L226.051 170.358L226.803 162.646L238.119 162.411C239.012 162.393 239.898 162.557 240.715 162.893C241.532 163.229 242.26 163.728 242.848 164.355C243.435 164.982 243.868 165.722 244.116 166.522C244.363 167.322 244.419 168.163 244.28 168.985C244.142 169.799 243.817 170.574 243.326 171.259C242.835 171.944 242.191 172.521 241.437 172.95C240.684 173.38 239.84 173.652 238.963 173.748C238.086 173.843 237.197 173.76 236.357 173.504Z" fill="#9F616A"/>
<path id="Vector_14" opacity="0.2" d="M216.415 195.613C212.155 193.75 202.459 189.053 188.452 179.535C169.162 166.424 174.068 134.411 174.068 134.411L199.811 158.223C199.319 161.013 198.826 163.808 199.755 166.082C203.965 176.376 213.586 184.738 216.415 195.613Z" fill="black"/>
<path id="Vector_15" d="M228.013 172.827C214.056 175.711 202.638 177.44 193.357 171.303C178.639 155.34 170.274 139.315 173.405 123.177C173.696 121.723 174.422 120.376 175.5 119.291C176.578 118.207 177.963 117.429 179.495 117.049C181.506 116.542 183.647 116.747 185.506 117.623C187.365 118.5 188.811 119.987 189.565 121.797L200.684 156.551L229.489 161.75L228.013 172.827Z" fill="#2F2E41"/>
<path id="Vector_16" d="M206.138 207.278C204.501 207.276 202.912 206.754 201.635 205.798C200.357 204.842 199.467 203.509 199.109 202.018L198.253 198.423L212.313 195.51L213.169 199.105C213.583 200.844 213.24 202.665 212.214 204.167C211.189 205.67 209.565 206.731 207.701 207.117C207.188 207.224 206.664 207.278 206.138 207.278ZM199.362 199.081L200.016 201.83C200.195 202.58 200.53 203.29 201.003 203.919C201.476 204.548 202.077 205.084 202.772 205.496C203.467 205.909 204.242 206.189 205.053 206.322C205.864 206.455 206.695 206.438 207.499 206.271C208.303 206.105 209.064 205.792 209.739 205.351C210.413 204.91 210.988 204.35 211.43 203.702C211.872 203.054 212.174 202.331 212.316 201.575C212.459 200.818 212.44 200.043 212.262 199.293L211.607 196.544L199.362 199.081Z" fill="#3F3D56"/>
<path id="Vector_17" d="M200.496 89.6512C200.496 89.6512 202.858 72.5103 183.587 78.1312C183.587 78.1312 169.824 75.7762 165.31 91.8308L160.74 108.66L162.967 107.53L164.006 109.646L167.615 110.499L169.16 107.64L169.907 111.112L199.469 113.86C199.469 113.86 186.229 106.558 186.019 93.4707L188.541 95.956L200.496 89.6512Z" fill="#2F2E41"/>
<path id="Vector_18" d="M25.3792 319.392C25.3792 319.392 34.4253 227.535 25.3792 213.006C25.3792 213.006 63.5737 269.714 41.9637 322.204L25.3792 319.392Z" fill="#E6B486"/>
<path id="Vector_19" d="M32.7697 318.924C32.7697 318.924 61.7871 270.779 60.6438 260.775C60.6438 260.775 66.6854 300.483 41.1078 324.244L32.7697 318.924Z" fill="#E6B486"/>
<path id="Vector_20" d="M324.402 323.156C324.402 323.156 330.799 258.194 324.402 247.919C324.402 247.919 351.413 288.024 336.13 325.145L324.402 323.156Z" fill="#E6B486"/>
<path id="Vector_21" d="M329.628 322.825C329.628 322.825 350.15 288.777 349.341 281.701C349.341 281.701 353.614 309.783 335.525 326.587L329.628 322.825Z" fill="#E6B486"/>
</g>
<defs>
<clipPath id="clip0">
<rect width="371" height="329" fill="white"/>
</clipPath>
</defs>
</svg>
